<?xml version="1.0" encoding="UTF-8" standalone="no"?><!DOCTYPE svg PUBLIC "-//W3C//DTD SVG 1.1//EN" "http://www.w3.org/Graphics/SVG/1.1/DTD/svg11.dtd"><svg width="100%" height="100%" viewBox="0 0 800 600" version="1.1" xmlns="http://www.w3.org/2000/svg" xmlns:xlink="http://www.w3.org/1999/xlink" xml:space="preserve" xmlns:serif="http://www.serif.com/" style="fill-rule:evenodd;clip-rule:evenodd;stroke-linejoin:round;stroke-miterlimit:2;"><rect id="bg" x="0" y="0" width="800" height="600" style="fill:url(#_Linear1);fill-rule:nonzero;"/><path id="store" d="M399.994,334.1l-0,-54.625l21.85,-0l-0,87.4c-0,2.959 -1.081,5.519 -3.243,7.682c-2.163,2.162 -4.723,3.243 -7.682,3.243l-87.4,0c-2.959,0 -5.519,-1.081 -7.682,-3.243c-2.162,-2.163 -3.243,-4.723 -3.243,-7.682l-0,-87.4l21.85,-0l-0,54.625l65.55,-0Zm107.543,-82.62c1.366,2.503 1.878,5.064 1.536,7.681c-0.341,2.618 -1.536,4.837 -3.584,6.658c-2.049,1.821 -4.439,2.731 -7.17,2.731l-196.65,-0c-2.731,-0 -5.121,-0.91 -7.17,-2.731c-2.048,-1.821 -3.243,-4.04 -3.584,-6.658c-0.342,-2.617 0.284,-5.178 1.877,-7.681l29.02,-43.7c2.048,-3.187 5.007,-4.78 8.877,-4.78l138.61,0c3.87,0 6.829,1.593 8.877,4.78l29.361,43.7Zm-41.993,120.858l-0,-92.863l21.85,0l-0,92.863c-0,1.593 -0.512,2.901 -1.536,3.926c-1.025,1.024 -2.333,1.536 -3.927,1.536l-10.925,0c-1.593,0 -2.901,-0.512 -3.926,-1.536c-1.024,-1.025 -1.536,-2.333 -1.536,-3.926Z" style="fill:#bbb;fill-rule:nonzero;"/><defs><linearGradient id="_Linear1" x1="0" y1="0" x2="1" y2="0" gradientUnits="userSpaceOnUse" gradientTransform="matrix(346.41,-600,600,346.41,226.795,600)"><stop offset="0" style="stop-color:#d4d4d4;stop-opacity:1"/><stop offset="1" style="stop-color:#f4f4f4;stop-opacity:1"/></linearGradient></defs></svg>