<?xml version="1.0" encoding="UTF-8" standalone="no"?><!DOCTYPE svg PUBLIC "-//W3C//DTD SVG 1.1//EN" "http://www.w3.org/Graphics/SVG/1.1/DTD/svg11.dtd"><svg width="100%" height="100%" viewBox="0 0 800 600" version="1.1" xmlns="http://www.w3.org/2000/svg" xmlns:xlink="http://www.w3.org/1999/xlink" xml:space="preserve" xmlns:serif="http://www.serif.com/" style="fill-rule:evenodd;clip-rule:evenodd;stroke-linejoin:round;stroke-miterlimit:2;"><rect id="bg" x="0" y="0" width="800" height="600" style="fill:url(#_Linear1);fill-rule:nonzero;"/><path id="category" d="M492.517,357.734c-2.085,3.91 -5.083,6.973 -8.993,9.189c-3.911,2.216 -8.082,3.324 -12.514,3.324l-156.413,0c-3.65,0 -6.387,-1.564 -8.212,-4.692c-1.825,-3.129 -1.825,-6.257 -0,-9.385l28.545,-48.489c2.086,-3.91 5.084,-6.973 8.994,-9.189c3.911,-2.216 8.082,-3.324 12.513,-3.324l156.414,0c3.65,0 6.387,1.564 8.212,4.693c1.825,3.128 1.825,6.256 -0,9.385l-28.546,48.488Zm-136.08,-75.079c-6.778,0 -13.034,1.695 -18.769,5.084c-5.736,3.389 -10.298,7.951 -13.687,13.686l-26.981,46.142l0,-108.708c0,-5.213 1.825,-9.645 5.474,-13.295c3.65,-3.649 8.082,-5.474 13.296,-5.474l62.565,-0l25.026,25.026l62.566,-0c5.214,-0 9.646,1.825 13.295,5.474c3.65,3.65 5.475,8.082 5.475,13.296l-0,18.769l-128.26,0Z" style="fill:#bbb;fill-rule:nonzero;"/><defs><linearGradient id="_Linear1" x1="0" y1="0" x2="1" y2="0" gradientUnits="userSpaceOnUse" gradientTransform="matrix(346.41,-600,600,346.41,226.795,600)"><stop offset="0" style="stop-color:#d4d4d4;stop-opacity:1"/><stop offset="1" style="stop-color:#f4f4f4;stop-opacity:1"/></linearGradient></defs></svg>