<?xml version="1.0" encoding="UTF-8" standalone="no"?><!DOCTYPE svg PUBLIC "-//W3C//DTD SVG 1.1//EN" "http://www.w3.org/Graphics/SVG/1.1/DTD/svg11.dtd"><svg width="100%" height="100%" viewBox="0 0 800 600" version="1.1" xmlns="http://www.w3.org/2000/svg" xmlns:xlink="http://www.w3.org/1999/xlink" xml:space="preserve" xmlns:serif="http://www.serif.com/" style="fill-rule:evenodd;clip-rule:evenodd;stroke-linejoin:round;stroke-miterlimit:2;"><rect id="bg" x="0" y="0" width="800" height="600" style="fill:url(#_Linear1);fill-rule:nonzero;"/><path id="info" d="M414.244,252.58c-0,2.967 1.038,5.489 3.115,7.567c2.078,2.077 4.6,3.115 7.567,3.115l60.535,0l0,145.997c0,2.967 -1.038,5.489 -3.115,7.567c-2.078,2.077 -4.6,3.115 -7.567,3.115l-149.558,0c-2.967,0 -5.489,-1.038 -7.567,-3.115c-2.077,-2.078 -3.115,-4.6 -3.115,-7.567l-0,-206.532c-0,-2.967 1.038,-5.49 3.115,-7.567c2.078,-2.077 4.6,-3.115 7.567,-3.115l89.023,-0l-0,60.535Zm-25.879,116.535l0,-29.918l-4.155,0c-1.108,0 -2.078,-0.415 -2.909,-1.246c-0.831,-0.831 -1.246,-1.801 -1.246,-2.909l-0,-9.973c-0,-1.108 0.415,-2.077 1.246,-2.908c0.831,-0.831 1.801,-1.247 2.909,-1.247l23.269,0c1.109,0 2.078,0.416 2.909,1.247c0.831,0.831 1.247,1.8 1.247,2.908l-0,44.046l4.155,0c1.108,0 2.078,0.416 2.909,1.247c0.831,0.831 1.246,1.801 1.246,2.909l0,9.972c0,1.108 -0.415,2.078 -1.246,2.909c-0.831,0.831 -1.801,1.247 -2.909,1.247l-31.58,-0c-1.108,-0 -2.078,-0.416 -2.909,-1.247c-0.831,-0.831 -1.246,-1.801 -1.246,-2.909l-0,-9.972c-0,-1.108 0.415,-2.078 1.246,-2.909c0.831,-0.831 1.801,-1.247 2.909,-1.247l4.155,0Zm11.635,-88.092c4.155,0 7.687,1.455 10.596,4.364c2.909,2.908 4.363,6.44 4.363,10.595c-0,4.156 -1.454,7.688 -4.363,10.596c-2.909,2.909 -6.441,4.363 -10.596,4.363c-4.155,0 -7.687,-1.454 -10.596,-4.363c-2.909,-2.908 -4.363,-6.44 -4.363,-10.596c0,-4.155 1.454,-7.687 4.363,-10.595c2.909,-2.909 6.441,-4.364 10.596,-4.364Zm85.461,-32.004l-56.974,-0l0,-56.974l2.671,-0c2.967,-0 5.489,1.038 7.567,3.115l43.621,43.621c2.077,2.077 3.115,4.6 3.115,7.567l0,2.671Z" style="fill:#bbb;"/><defs><linearGradient id="_Linear1" x1="0" y1="0" x2="1" y2="0" gradientUnits="userSpaceOnUse" gradientTransform="matrix(346.41,-600,600,346.41,226.795,600)"><stop offset="0" style="stop-color:#d4d4d4;stop-opacity:1"/><stop offset="1" style="stop-color:#f4f4f4;stop-opacity:1"/></linearGradient></defs></svg>