<svg viewBox="0 0 800 600" xmlns="http://www.w3.org/2000/svg" xml:space="preserve" style="fill-rule:evenodd;clip-rule:evenodd;stroke-linejoin:round;stroke-miterlimit:2" preserveAspectRatio="xMidYMid slice">
  <rect width="800" height="600" style="fill:url(#a);fill-rule:nonzero"/>
  <path d="M400 305.993c-9.776 0-18.784-2.374-27.023-7.122-8.24-4.749-14.734-11.243-19.482-19.482-4.748-8.24-7.123-17.248-7.123-27.024s2.375-18.783 7.123-27.023c4.748-8.24 11.242-14.734 19.482-19.482 8.239-4.748 17.247-7.122 27.023-7.122s18.784 2.374 27.023 7.122c8.24 4.748 14.734 11.242 19.482 19.482 4.748 8.24 7.123 17.247 7.123 27.023s-2.375 18.784-7.123 27.024c-4.748 8.239-11.242 14.733-19.482 19.482-8.239 4.748-17.247 7.122-27.023 7.122Zm37.707 13.407c10.055 0 19.412 2.514 28.071 7.541 8.658 5.028 15.501 11.871 20.529 20.53 5.028 8.658 7.541 18.015 7.541 28.07v17.597c0 5.586-1.955 10.334-5.865 14.245-3.911 3.91-8.659 5.865-14.245 5.865H326.262c-5.586 0-10.334-1.955-14.245-5.865-3.91-3.911-5.865-8.659-5.865-14.245v-17.597c0-10.055 2.513-19.412 7.541-28.07 5.028-8.659 11.871-15.502 20.529-20.53 8.659-5.027 18.016-7.541 28.071-7.541h7.122c9.776 4.469 19.971 6.703 30.585 6.703s20.809-2.234 30.585-6.703h7.122Z" style="fill:#bbb;fill-rule:nonzero"/>
  <defs>
    <linearGradient id="a" x1="0" y1="0" x2="1" y2="0" gradientUnits="userSpaceOnUse" gradientTransform="matrix(346.41 -600 600 346.41 226.795 600)">
      <stop offset="0" style="stop-color:#d4d4d4;stop-opacity:1"/>
      <stop offset="1" style="stop-color:#f4f4f4;stop-opacity:1"/>
    </linearGradient>
  </defs>
</svg>
