<svg viewBox="0 0 800 600" xmlns="http://www.w3.org/2000/svg" xml:space="preserve" style="fill-rule:evenodd;clip-rule:evenodd;stroke-linejoin:round;stroke-miterlimit:2" preserveAspectRatio="xMidYMid slice">
  <rect width="800" height="600" style="fill:url(#a);fill-rule:nonzero"/>
  <path d="M414.244 252.58c0 2.967 1.038 5.489 3.115 7.567 2.078 2.077 4.6 3.115 7.567 3.115h60.535v145.997c0 2.967-1.038 5.489-3.115 7.567-2.078 2.077-4.6 3.115-7.567 3.115H325.221c-2.967 0-5.489-1.038-7.567-3.115-2.077-2.078-3.115-4.6-3.115-7.567V202.727c0-2.967 1.038-5.49 3.115-7.567 2.078-2.077 4.6-3.115 7.567-3.115h89.023v60.535Zm-25.879 116.535v-29.918h-4.155c-1.108 0-2.078-.415-2.909-1.246s-1.246-1.801-1.246-2.909v-9.973c0-1.108.415-2.077 1.246-2.908s1.801-1.247 2.909-1.247h23.269c1.109 0 2.078.416 2.909 1.247.831.831 1.247 1.8 1.247 2.908v44.046h4.155c1.108 0 2.078.416 2.909 1.247.831.831 1.246 1.801 1.246 2.909v9.972c0 1.108-.415 2.078-1.246 2.909s-1.801 1.247-2.909 1.247h-31.58c-1.108 0-2.078-.416-2.909-1.247-.831-.831-1.246-1.801-1.246-2.909v-9.972c0-1.108.415-2.078 1.246-2.909s1.801-1.247 2.909-1.247h4.155ZM400 281.023c4.155 0 7.687 1.455 10.596 4.364 2.909 2.908 4.363 6.44 4.363 10.595 0 4.156-1.454 7.688-4.363 10.596-2.909 2.909-6.441 4.363-10.596 4.363s-7.687-1.454-10.596-4.363c-2.909-2.908-4.363-6.44-4.363-10.596 0-4.155 1.454-7.687 4.363-10.595 2.909-2.909 6.441-4.364 10.596-4.364Zm85.461-32.004h-56.974v-56.974h2.671c2.967 0 5.489 1.038 7.567 3.115l43.621 43.621c2.077 2.077 3.115 4.6 3.115 7.567v2.671Z" style="fill:#bbb"/>
  <defs>
    <linearGradient id="a" x1="0" y1="0" x2="1" y2="0" gradientUnits="userSpaceOnUse" gradientTransform="rotate(-60 633.013 103.59) scale(692.82)">
      <stop offset="0" style="stop-color:#d4d4d4;stop-opacity:1"/>
      <stop offset="1" style="stop-color:#f4f4f4;stop-opacity:1"/>
    </linearGradient>
  </defs>
</svg>
