<svg xmlns="http://www.w3.org/2000/svg" viewBox="0 0 800 600">
	<defs>
		<linearGradient id="grd1" gradientUnits="userSpaceOnUse"  x1="226.795" y1="600" x2="573.205" y2="0">
			<stop offset="0" stop-color="#d4d4d4"  />
			<stop offset="1" stop-color="#f4f4f4"  />
		</linearGradient>
	</defs>
	<style>
		tspan { white-space:pre }
		.shp0 { fill: url(#grd1) } 
		.shp1 { fill: #bbbbbb } 
	</style>
	<path id="bg" class="shp0" d="M0 0L800 0L800 600L0 600L0 0Z" />
	<path id="camera" fill-rule="evenodd" class="shp1" d="M495.92 237.76C501.31 243.02 504 249.36 504 256.78L504 350.9C504 358.32 501.31 364.66 495.92 369.92C490.53 375.17 484.03 377.8 476.41 377.8L324.6 377.8C316.98 377.8 310.47 375.17 305.08 369.92C299.69 364.66 297 358.32 297 350.9L297 256.78C297 249.36 299.69 243.02 305.08 237.76C310.48 232.5 316.98 229.88 324.6 229.88L348.76 229.88L354.26 215.6C355.63 212.18 358.13 209.21 361.76 206.73C365.38 204.25 369.11 203 372.92 203L428.12 203C431.93 203 435.66 204.25 439.28 206.73C442.91 209.21 445.41 212.16 446.78 215.6L452.28 229.88L476.43 229.88C484.04 229.88 490.56 232.5 495.94 237.76M448.81 303.85C448.81 290.89 444.07 279.81 434.62 270.6C425.16 261.4 413.8 256.79 400.49 256.79C387.19 256.79 375.81 261.38 366.37 270.6C356.91 279.8 352.18 290.89 352.18 303.85C352.18 316.8 356.92 327.88 366.37 337.09C375.83 346.29 387.19 350.9 400.49 350.9C413.8 350.9 425.17 346.31 434.62 337.09C444.08 327.89 448.81 316.8 448.81 303.85ZM422.44 282.46C428.52 288.38 431.56 295.51 431.56 303.85C431.56 312.18 428.52 319.31 422.44 325.23C416.36 331.15 409.05 334.1 400.49 334.1C391.94 334.1 384.62 331.15 378.55 325.23C372.47 319.31 369.43 312.18 369.43 303.85C369.43 295.51 372.47 288.38 378.55 282.46C384.62 276.54 391.94 273.59 400.49 273.59C409.05 273.59 416.36 276.54 422.44 282.46Z" />
</svg>