<svg viewBox="0 0 800 600" xmlns="http://www.w3.org/2000/svg" xml:space="preserve" style="fill-rule:evenodd;clip-rule:evenodd;stroke-linejoin:round;stroke-miterlimit:2" preserveAspectRatio="xMidYMid slice">
  <rect width="800" height="600" style="fill:url(#a);fill-rule:nonzero"/>
  <path d="M492.517 357.734c-2.085 3.91-5.083 6.973-8.993 9.189-3.911 2.216-8.082 3.324-12.514 3.324H314.597c-3.65 0-6.387-1.564-8.212-4.692-1.825-3.129-1.825-6.257 0-9.385l28.545-48.489c2.086-3.91 5.084-6.973 8.994-9.189 3.911-2.216 8.082-3.324 12.513-3.324h156.414c3.65 0 6.387 1.564 8.212 4.693 1.825 3.128 1.825 6.256 0 9.385l-28.546 48.488Zm-136.08-75.079c-6.778 0-13.034 1.695-18.769 5.084-5.736 3.389-10.298 7.951-13.687 13.686L297 347.567V238.859c0-5.213 1.825-9.645 5.474-13.295 3.65-3.649 8.082-5.474 13.296-5.474h62.565l25.026 25.026h62.566c5.214 0 9.646 1.825 13.295 5.474 3.65 3.65 5.475 8.082 5.475 13.296v18.769h-128.26Z" style="fill:#bbb;fill-rule:nonzero"/>
  <defs>
    <linearGradient id="a" x1="0" y1="0" x2="1" y2="0" gradientUnits="userSpaceOnUse" gradientTransform="rotate(-60 633.013 103.59) scale(692.82)">
      <stop offset="0" style="stop-color:#d4d4d4;stop-opacity:1"/>
      <stop offset="1" style="stop-color:#f4f4f4;stop-opacity:1"/>
    </linearGradient>
  </defs>
</svg>
