<svg xmlns="http://www.w3.org/2000/svg" viewBox="0 0 172 67">
	<g id="layer1">
		<g id="text3926-6-6">
			<g id="text3926-6">
				<path id="path84" fill-rule="evenodd" class="shp0" d="M68.2 52.3a6.8 6.8 0 006.8 6.3c2.7 0 5.2-1.6 6.2-4h2.5a9.5 9.5 0 01-2.6 3.8 9.2 9.2 0 01-15.3-7 9 9 0 019.2-9c3.3 0 6.4 1.7 8 4.5a10 10 0 011.2 5.4h-16zm13.6-2.1c-.8-3.5-3.5-5.7-6.9-5.7-3.3 0-6 2.3-6.7 5.7h13.6z" fill="#fff" />
				<path id="path86" class="shp0" d="M86.4 50.8v2h8.8v-2h-8.8z" fill="#fff" />
				<path id="path88" class="shp0" d="M96.7 55.2c0 3.4 2.3 5.6 5.7 5.6 3.1 0 5.4-2.3 5.4-5.5 0-2.1-1-3.6-3-4.5l-3.4-1.4c-1.1-.6-1.6-1.3-1.6-2.4 0-1.4 1.1-2.5 2.5-2.5 1.6 0 2.5 1 2.6 2.6h2.4c0-2.9-2.1-4.8-5-4.8-2.8 0-5 2.1-5 5 0 1.2.5 2.3 1.4 3.1.7.7.8.7 3.2 1.8l2.3 1c.7.5 1.2 1.4 1.2 2.3 0 1.8-1.3 3.1-3 3.1-2 0-3.2-1.3-3.3-3.4h-2.4z" fill="#fff" />
				<path id="path90" class="shp0" d="M110.7 60.4h2.4v-9.7c0-2 .2-3 1-4 1-1.4 2.6-2.2 4.4-2.2 1.7 0 3.3.7 4.2 2 .9 1 1.2 2.3 1.2 4.4v9.5h2.4v-9.5c0-2.7-.5-4.5-1.5-5.9a7.5 7.5 0 00-6.1-2.7c-2.4 0-4.4 1-5.6 2.7v-8.5h-2.4v23.9z" fill="#fff" />
				<path id="path92" fill-rule="evenodd" class="shp0" d="M139 42.3a9 9 0 019.1 9.3c0 5.3-3.8 9.2-9 9.2a9 9 0 01-9.4-9.4 9 9 0 019.2-9zm0 2.2c-4 0-6.9 3-6.9 7 0 4.1 2.9 7.1 7 7.1 3.8 0 6.6-3 6.6-7s-2.9-7.1-6.8-7.1z" fill="#fff" />
				<path id="path94" fill-rule="evenodd" class="shp0" d="M153.8 42.7v3a8 8 0 017-3.4c5.2 0 9.3 4 9.3 9.3 0 5.2-4.1 9.2-9.4 9.2a8 8 0 01-6.8-3.5v9.3h-2.4V42.7h2.3zm6.9 1.8a7 7 0 00-7 7c0 4 3 7.1 7 7.1s7-3 7-7-3-7.1-7-7.1z" fill="#fff" />
			</g>
			<g id="text3926-6-6-8">
				<path id="path73" fill-rule="evenodd" class="shp0" d="M77.6 4.9h4l11.1 26.6h-5.4l-2.9-6.8H75l-3 6.8h-5.4L77.6 5zm4.8 15l-2.8-8-2.9 8h5.7z" fill="#fff" />
				<path id="path75" class="shp0" d="M98.2 31.5h4.9V9.6h5V5H93.1v4.7h5v22z" fill="#fff" />
				<path id="path77" class="shp0" d="M110.6 31.5h4.9V19.8l8.3 11.7h6L119.6 18l10-13.1h-6l-8.2 11.5V4.9h-5v26.6z" fill="#fff" />
				<path id="path79" class="shp0" d="M139.3 31.5h4.8V5h-8.2v4.5h3.4v22.1z" fill="#fff" />
				<path id="path81" fill-rule="evenodd" class="shp0" d="M162.9 4.9h4v18.4h2.8v4.2H167v4h-4.8v-4h-11.5v-3.9L163 5zm-.8 8l-6.6 10.3h6.6V13z" fill="#fff" />
			</g>
			<path id="path4036" d="M30 62.8a29 29 0 110-58 29 29 0 010 58z" fill="#f60" />
			<g id="text4034-9">
				<path id="path70" fill-rule="evenodd" d="M25.8 29.7a3.7 3.7 0 00-2.8 3.6v13.3c0 .7.2 1.3.5 1.9h-10c-1 0-1.9-.9-1.9-2V25.8a2 2 0 012-1.9h1.6l-1.8-1.3a.9.9 0 01-.2-1.3l.6-.8a1 1 0 011.3-.2l1.8 1.4-.6-1.8c-.2-.6 0-1 .5-1.3l1-.3c.4-.2 1 0 1.2.6l1.1 3.1 1.2-3.1c.2-.5.8-.8 1.2-.6l1 .3c.4.2.7.7.4 1.3l-.6 1.8 1.9-1.4a1 1 0 011.3.2l.6.8c.3.4.2 1-.3 1.3L25 23.8h1.8c.7 0 1.4.5 1.6 1.1a6.1 6.1 0 00-2.6 4.8zM25 40.9h11.4v7.6h-9.5c-1 0-1.9-.9-1.9-2V41zm13.3 0h11.4v5.7a2 2 0 01-2 1.9h-9.4v-7.6zm9.5-9.5c1 0 1.9.9 1.9 1.9V39H38.2v-7.6h-2V39H25v-5.7a2 2 0 011.9-1.9H28c-.2-.4-.3-.9-.3-1.4 0-2.1 1.6-4.3 4.3-4.3 2.9 0 4.5 2.9 5.2 4.5.7-1.6 2.3-4.5 5.2-4.5 2.7 0 4.3 2.2 4.3 4.3 0 .5-.1 1-.3 1.4h1.3zm-13 0c-.6-1.2-1.6-2.8-2.7-2.8-1 0-1.4.8-1.4 1.4 0 .3 0 .8.5 1.2l.4.2h3.1zm8.6-.2c.5-.4.6-.9.6-1.2 0-.6-.4-1.4-1.5-1.4-1 0-2 1.6-2.6 2.8h3.1l.4-.2z" fill="#fff" />
			</g>
		</g>
	</g>
</svg>
